# xmcd CD database file
#
# Track frame offsets:
#	150
#	21394
#	42213
#	60729
#	77949
#	97809
#	104802
#	130433
#	148901
#	158726
#	168139
#	181162
#	184966
#	205595
#
# Disc length: 2950 seconds
#
# Revision: 0
# Processed by: cddbd v1.5.2PL0 Copyright (c) Steve Scherf et al.
# Submitted via: CDex 1.51
#
DISCID=c20b840e
DTITLE=Steps - Volksliederlich
DYEAR=1900
DGENRE=Jazz
TTITLE0=Am Brunnen vor dem Tore
TTITLE1=Adé zur guten Nacht
TTITLE2=Ein Jäger aus der Kurpfalz
TTITLE3=Im Frühtau zu Berge
TTITLE4=Summ, summ, summ
TTITLE5=Horch, horch, horch
TTITLE6=Der Kuckuck und der Esel
TTITLE7=Sah ein Knab ein Röslein stehn
TTITLE8=Horch, was kommt von draussen rein
TTITLE9=Hoch auf dem gelben Wagen
TTITLE10=Ein Männlein steht im Walde
TTITLE11=Hänsel und Gretel
TTITLE12=Im Märzen der Bauer
TTITLE13=Jetzt fahr´n wir über´n See
EXTD=
EXTT0=
EXTT1=
EXTT2=
EXTT3=
EXTT4=
EXTT5=
EXTT6=
EXTT7=
EXTT8=
EXTT9=
EXTT10=
EXTT11=
EXTT12=
EXTT13=
PLAYORDER=
